<?xml version="1.0" encoding="UTF-8"?>
<svg xmlns="http://www.w3.org/2000/svg"
     viewBox="0 0 1254 1254"
     width="1254" height="1254"
     role="img" aria-labelledby="title desc"
     color="#F3F1E9">
  <title id="title">Знак собаки в солнцезащитных очках</title>
  <desc id="desc">Одноцветный знак без текста, переведённый в вектор из утверждённого PNG.</desc>
  <path fill="currentColor" fill-rule="evenodd" d="M167.93 816.5L167.94 832.5L168.78 835.5L169 844.5L169.65 845.5L170.98 855.5L174.97 870.5L178.95 880.5L183.95 890.5L188.93 898.5L195.92 907.5L206.79 918.5L212.5 924.04L220.5 930.06L230.5 936.08L247.5 944.02L269.5 950.04L273.5 950.23L275.5 951.05L284.5 951.26L286.5 952.02L301.5 952.03L303.5 951.27L310.5 951.05L328.5 947.06L336.5 944.05L344.5 940.05L354.5 933.05L368.08 919.5L374.07 911.5L379.29 901.5L381.03 899.5L381.32 897.5L385.03 890.5L385.12 888.5L388.08 882.5L390.2 874.5L391.05 873.5L391.25 870.5L393.03 866.5L394.33 858.5L396 853.5L400.04 826.5L401.18 808.5L402 805.5L404 758.5L404.29 603.5L405 598.5L405.19 581.5L406 578.5L406.1 565.5L407 560.5L407.3 550.5L408.04 549.5L409.39 536.5L412 526.5L412.17 523.5L413 522.5L415.2 513.5L420.36 502.5L424.19 496.5L430.5 490.08L434.5 487.16L437.5 486.04L438.5 486.13L439.69 487.5L438.96 489.5L439 513.5L439.8 516.5L440 524.5L441.97 539.5L445.95 559.5L452.94 582.5L459.94 599.5L468.94 617.5L474.95 627.5L488.95 647.5L492.93 652.5L504.76 664.5L505.88 666.5L505.95 764.5L506.96 794.5L509.91 806.5L514.96 818.5L519.5 825.1L529.5 835.05L532.5 837.06L543.5 843L552.5 846L604.5 858.04L617.5 860.17L628.5 863L633.5 863.3L639.5 865.02L643.5 865.32L644.5 866.04L712.5 877.04L734.5 879.24L736.5 880L753.5 881.18L756.5 882.07L788.5 884.18L791.5 885.04L801.5 885.13L806.5 886.04L826.5 886.27L829.5 887.02L885.5 887.04L889.5 886.17L911.5 886.03L916.5 885.19L950.5 883.03L969.5 880.15L974.5 880L975.5 879.27L986.5 878.02L992.5 876.15L996.5 876.02L997.5 875.23L1008.5 873.03L1017.5 870.04L1025.5 866.06L1034.09 858.5L1039 851.5L1042.07 843.5L1044 835.5L1046.29 812.5L1047 810.5L1047.27 801.5L1048 800.5L1049 781.5L1049.54 722.5L1048.68 695.5L1049.2 692.5L1053.5 690.04L1063.5 682.06L1073.5 672.12L1081.05 663.5L1089.04 652.5L1100.04 633.5L1100.18 631.5L1105.03 622.5L1113.04 600.5L1116.04 589.5L1120.03 570.5L1120.33 565.5L1121.03 564.5L1121.21 558.5L1123.03 547.5L1123.28 536.5L1124.02 533.5L1124.13 518.5L1125.02 514.5L1125.03 482.5L1124.16 479.5L1124.02 469.5L1123.05 461.5L1121.02 452.5L1118.03 446.5L1111.5 439.95L1104.5 436.97L1100.5 436.83L1099.5 435.98L1047.5 437L1044.5 437.88L1015.5 438L1011.5 438.89L985.5 439L982.5 439.83L960.5 440L958.5 440.68L933.5 440.55L927.02 426.5L925.21 424.5L921.06 416.5L913.06 405.5L909.06 400.5L890.5 381.95L880.5 373.96L876.5 371.93L870.5 366.97L862.5 362.91L860.5 360.98L842.5 351.97L832.5 348L824.5 345.8L821.5 343.96L808.5 340.87L807.5 340L804.5 339.93L798.5 337.98L794.5 337.85L792.53 336.5L793.33 333.5L796.03 330.5L798.25 326.5L812.23 310.5L824.5 299.32L832.09 293.5L832.58 291.5L831.5 288.93L827.5 287.95L822.5 287.86L820.5 286.98L816.5 287.43L804.5 286.95L784.5 289L782.5 289.88L779.5 289.98L778.5 290.78L774.5 291L773.5 291.85L760.5 294.96L754.5 297.73L752.5 297.98L749.5 299.81L747.5 299.97L732.5 307.84L731.5 307.78L730.5 307.03L730.3 305.5L739.14 288.5L753.3 268.5L769.5 251.32L770.05 248.5L768.5 246.95L759.5 246.97L757.5 247.8L751.5 247.96L750.5 248.75L740.5 249.97L720.5 255.96L700.5 264.98L684.5 274.92L676.5 280.97L665.94 290.5L653.97 303.5L653.87 304.5L650.96 307.5L650.86 308.5L647.96 311.5L647.91 312.5L643.94 317.5L642.5 320.8L640.5 321.53L628.5 319.97L588.5 319.97L571.5 322L570.5 322.74L560.5 323.98L559.5 324.78L544.5 327.96L543.5 328.85L541.5 328.97L540.5 329.88L538.5 329.98L537.5 330.9L527.5 333.98L508.5 343L506.5 344.83L503.5 345.97L501.5 347.88L495.5 350.98L492.5 353.88L491.5 353.97L488.5 356.79L487.5 356.97L472.93 370.5L461.94 384.5L452.96 401.5L452.74 403.5L450.96 406.5L449.61 412.5L447.5 414.88L439.5 415L437.5 415.91L432.5 416L431.5 416.75L423.5 418L422.5 418.84L416.5 420L395.5 427.96L379.5 435.95L361.5 446.96L350.5 455.8L349.5 455.97L327.95 475.5L326.77 477.5L315.96 488.5L302.96 504.5L302.83 505.5L291.97 519.5L290.61 522.5L284.93 530.5L283.78 533.5L276.95 543.5L275.86 546.5L267.94 559.5L262.64 570.5L259.96 574.5L258.58 578.5L256.95 580.5L248.96 596.5L242.9 610.5L239.96 615.5L229.9 638.5L226.95 643.5L225.85 647.5L222 654.5L211.85 678.5L209.98 681.5L209.8 683.5L206.94 688.5L202.83 699.5L200.97 702.5L200.75 704.5L195.96 714.5L193.83 721.5L191.97 724.5L190.68 729.5L186.97 737.5L184.69 745.5L182.98 748.5L182.86 750.5L178.98 760.5L178.76 763.5L176.97 767.5L176.73 770.5L174.97 774.5L174.76 777.5L173 782.5L168.97 805.5Z M461.2 501.5L462.11 522.5L464.15 537.5L467.15 551.5L472.32 569.5L477.23 582.5L480.06 587.5L481.14 591.5L487.04 601.5L489.17 606.5L505.14 629.5L521.5 646.92L530.5 654.8L535.5 657.94L538.5 660.81L541.5 661.97L553.5 669.85L570.5 677.67L588.5 682.98L589.5 683.85L592.5 683.98L593.5 684.84L603.5 686.8L608.5 686.96L611.5 687.84L619.5 687.97L623.5 688.85L647.5 688.85L650.5 687.98L659.5 687.77L661.5 686.97L671.5 685.77L672.5 685L676.5 684.75L677.5 683.97L684.5 682.74L691.5 679.97L693.5 679.82L694.5 678.97L701.5 676.92L704.5 674.98L706.5 674.81L718.5 668.77L733.5 658.61L746.5 646.74L756.89 634.5L765.87 621.5L776.81 600.5L777.96 596.5L781.67 589.5L789.77 566.5L790.97 560.5L791.85 559.5L796.71 542.5L796.96 539.5L797.74 538.5L802.95 513.5L806.5 508.96L809.5 506.98L812.5 506.7L813.5 505.98L821.5 505.96L825.5 506.97L829.07 509.5L832.04 513.5L838.1 537.5L839 538.5L842.37 551.5L844.02 554.5L846.27 562.5L848.03 565.5L848.17 567.5L859.17 591.5L861.04 593.5L862.22 596.5L866.32 602.5L870.5 606.81L877.5 609.74L898.5 609L934.5 608.98L939.5 609.74L951.5 609.98L952.5 610.68L965.5 612L966.5 612.8L969.5 612.97L970.5 613.78L973.5 613.98L979.5 615.98L993.5 623.94L997.5 626.96L1007.02 636.5L1017.03 651.5L1023.03 665.5L1026.37 675.5L1029.5 675.85L1037.5 670.97L1040.5 669.9L1043.5 666.98L1044.5 666.95L1047.5 663.97L1049.5 662.96L1061.95 650.5L1073.87 634.5L1085.73 611.5L1087.86 606.5L1087.96 604.5L1090.78 598.5L1092.94 590.5L1093.8 589.5L1099.76 563.5L1099.94 559.5L1101.77 552.5L1101.94 546.5L1102.88 543.5L1104.57 514.5L1103.9 478.5L1102.74 469.5L1100.5 465.59L1097.5 463.13L1093.5 462.04L1065.5 462.16L1058.5 463.02L1032.5 463.3L1029.5 464.04L976.5 465.35L947.5 467.02L925.5 467.26L920.5 468.03L900.5 468.22L892.5 469.03L812.5 471.45L810.5 472.04L763.5 473.24L756.5 474.03L679.5 476.19L675.5 477.03L647.5 477.29L645.5 478.02L617.5 478.47L614.5 479.04L568.5 480.26L565.5 481.04L539.5 481.23L535.5 482.04L512.5 482.22L504.5 483.04L483.5 483.3L481.5 484.04L469.5 484.08L464.5 486.24L462.16 489.5Z M794.07 663.5L794.32 680.5L798.27 710.5L801.3 723.5L802.06 724.5L802.18 727.5L806.35 739.5L811.04 749.5L815.1 755.5L823.5 763.94L834.54 769.5L847.5 772.91L864.5 773.97L865.5 774.7L868.5 774.88L899.5 775.5L927.5 774.78L930.5 773.98L938.5 773.8L939.5 773L949.5 771.84L950.5 770.98L956.5 769.75L964.5 765.91L972.76 759.5L976.82 754.5L981.83 746.5L986.8 734.5L991.69 716.5L994.75 699.5L995.96 684.5L996.89 682.5L996.79 662.5L994.67 653.5L991.81 647.5L988.89 643.5L980.5 636.29L971.5 631.47L955.5 627.2L930.5 625.17L858.5 625.21L855.5 626L842.5 626.16L830.5 628.12L817.5 632.21L811.5 635.25L804.5 640.24L800.35 644.5L796.19 651.5L794.23 658.5Z M618.03 781.5L618.13 785.5L619.19 787.5L622.5 789.73L627.5 789.63L630.9 786.5L632.78 783.5L634.5 782.95L641.5 788.75L659.58 799.5L672.5 805.84L674.5 805.96L680.5 808.84L694.5 813.77L697.5 813.97L698.5 814.8L717.5 818.77L731.5 819.98L733.5 820.84L751.5 820.94L757.5 818.88L759.82 816.5L761.71 812.5L761.75 808.5L760.5 805.53L757.5 802.13L755.5 801.14L752.5 800.27L734.5 800.02L731.5 799.2L724.5 799L708.5 796.04L688.5 790.04L678.5 786.07L662.5 778.07L646.96 767.5L647.5 765.88L653.9 760.5L654.44 758.5L653.9 754.5L651.5 752.08L649.5 751.2L643.5 751.26L642.5 752.04L639.5 752.37L633.5 755.17L629.5 758.15L623.39 764.5L619.13 772.5L618.07 776.5Z"/>
</svg>
